<svg width="181" height="32" viewBox="0 0 181 32" fill="none" xmlns="http://www.w3.org/2000/svg"><path d="M39.718 12.486h4.137v10.787h2.67V12.486h4.137V9.972H39.718v2.514zm21.892 3.822s1.492-.733 1.492-2.644c0-2.068-1.65-3.692-4.006-3.692h-6.205v13.3h6.65c2.357 0 4.006-1.622 4.006-3.848 0-2.225-1.937-3.116-1.937-3.116zm-2.802-4.136c.89 0 1.624.759 1.624 1.623 0 .89-.733 1.65-1.624 1.65h-3.272v-3.273h3.272zm.446 8.875h-3.718v-3.403h3.718c.89 0 1.623.759 1.623 1.623 0 1.047-.733 1.78-1.623 1.78zm16.407-4.424c0 2.513-1.78 4.293-3.718 4.293-1.911 0-3.692-1.78-3.692-4.293 0-2.514 1.78-4.294 3.692-4.294 1.937 0 3.718 1.78 3.718 4.294zm2.644 0c0-4.006-2.801-6.808-6.362-6.808-3.535 0-6.336 2.802-6.336 6.808 0 3.98 2.801 6.807 6.336 6.807 3.56 0 6.362-2.828 6.362-6.807zm11.846-6.65l-6.363 9.294V9.972h-2.644v13.3h2.644l6.363-9.32v9.32h2.67v-13.3h-2.67zm-3.247-1.938c2.068 0 3.56-1.466 3.849-3.404h-2.069c-.157.89-.89 1.624-1.78 1.624s-1.623-.734-1.78-1.624h-2.069c.314 1.938 1.78 3.404 3.849 3.404zm27.359 1.492c-3.247 0-5.76 2.514-6.363 5.603h-1.623V9.658h-3.404v13.615h3.404v-5.184h1.623c.603 2.827 3.116 5.34 6.363 5.34 3.56 0 6.519-2.958 6.519-6.963 0-3.98-2.959-6.939-6.519-6.939zm0 10.63c-1.624 0-3.09-1.466-3.09-3.692 0-2.225 1.466-3.691 3.09-3.691 1.623 0 3.115 1.466 3.115 3.691 0 2.226-1.492 3.692-3.115 3.692zm16.004-10.63c-2.383 0-3.849 1.466-3.849 1.466l-.602-1.335h-2.514v18.354h3.404v-5.917s1.335 1.335 3.561 1.335c3.403 0 6.362-2.959 6.362-6.965 0-3.98-2.959-6.938-6.362-6.938zm-3.849 6.938c0-2.225 1.466-3.691 3.403-3.691 1.912 0 3.404 1.466 3.404 3.691 0 2.226-1.492 3.692-3.404 3.692-1.937 0-3.403-1.466-3.403-3.692zm21.324 2.671s-.733 1.021-2.513 1.021c-1.781 0-2.828-1.021-3.116-2.356h9.478s.131-.733.131-1.335c0-4.137-2.959-6.939-6.493-6.939-3.692 0-6.808 3.09-6.808 6.938 0 3.85 3.116 6.965 6.808 6.965 3.089 0 5.315-2.226 6.048-4.294h-3.535zm-2.513-6.362c1.78 0 2.958 1.178 3.246 2.67h-6.519c.314-1.492 1.492-2.67 3.273-2.67zm17.886-3.116v5.027h-5.472V9.658h-3.403v13.615h3.403v-5.315h5.472v5.315h3.404V9.658h-3.404zm5.466 3.273h3.98v10.342h3.404V12.93h4.006V9.658h-11.39v3.273z" fill="#000"/><path fill-rule="evenodd" clip-rule="evenodd" d="M2.25 2.25C0 4.498 0 8.12 0 15.36v1.28c0 7.24 0 10.861 2.25 13.11C4.498 32 8.12 32 15.36 32h1.28c7.24 0 10.861 0 13.11-2.25C32 27.502 32 23.88 32 16.64v-1.28c0-7.24 0-10.861-2.25-13.11C27.502 0 23.88 0 16.64 0h-1.28C8.12 0 4.499 0 2.25 2.25zm6.003 20.66c.627.627 1.478.98 2.365.982h10.68a3.352 3.352 0 003.345-3.346V12.97a.128.128 0 00-.128-.128H22.44a.128.128 0 00-.128.128v7.576a1.025 1.025 0 01-1.014 1.014h-10.68a1.024 1.024 0 01-1.013-1.014V12.97a.128.128 0 00-.129-.128H7.401a.128.128 0 00-.128.128v7.576a3.35 3.35 0 00.981 2.364zm5.024-11.76c-.265 0-.524-.082-.744-.235a1.383 1.383 0 01-.494-.625 1.446 1.446 0 01-.076-.806c.052-.27.18-.518.367-.713a1.293 1.293 0 011.46-.302c.245.105.454.284.601.513a1.433 1.433 0 01-.166 1.76 1.316 1.316 0 01-.948.408zm4.638 1.457a1.388 1.388 0 002.162-1.157 1.398 1.398 0 00-.857-1.289 1.386 1.386 0 00-1.896 1.015 1.398 1.398 0 00.591 1.431z" fill="#804AFF"/></svg>