<svg width="35" height="35" viewBox="0 0 35 35" fill="none" xmlns="http://www.w3.org/2000/svg"><mask id="a" style="mask-type:alpha" maskUnits="userSpaceOnUse" x="0" y="0" width="35" height="35"><path fill="#D9D9D9" d="M0 0h35v35H0z"/></mask><g mask="url(#a)"><path d="M17.5 32.083c-.413 0-.76-.14-1.038-.42a1.407 1.407 0 01-.42-1.038v-3.208l-1.35 1.349a1.339 1.339 0 01-.984.4c-.389 0-.729-.145-1.02-.437-.268-.267-.402-.607-.402-1.02 0-.414.134-.754.402-1.021l3.791-3.792a1.399 1.399 0 011.021-.438c.389 0 .73.146 1.02.438l3.829 3.828c.267.267.401.596.401.984 0 .39-.146.73-.438 1.021a1.36 1.36 0 01-1.001.401c-.402 0-.748-.133-1.04-.4l-1.313-1.24v3.172c0 .413-.14.753-.418 1.02-.28.268-.627.401-1.04.401zM7.255 20.417c-.413 0-.753-.14-1.02-.42a1.442 1.442 0 01-.402-1.039c0-.413.14-.76.419-1.04.28-.278.626-.418 1.04-.418h20.453c.413 0 .753.14 1.02.419.268.28.402.626.402 1.04 0 .413-.14.759-.42 1.038-.28.28-.625.42-1.039.42H7.255zm0-4.375c-.413 0-.753-.14-1.02-.42a1.442 1.442 0 01-.402-1.039c0-.413.14-.76.419-1.04.28-.278.626-.418 1.04-.418h20.453c.413 0 .753.14 1.02.419.268.28.402.626.402 1.04 0 .413-.14.759-.42 1.038-.28.28-.625.42-1.039.42H7.255zm9.224-5.396l-3.828-3.828a1.339 1.339 0 01-.401-.985c0-.389.146-.729.438-1.02.267-.268.607-.401 1.02-.401.413 0 .754.133 1.021.4l1.313 1.313V2.88c0-.413.14-.753.42-1.02a1.442 1.442 0 011.038-.402c.413 0 .76.14 1.04.419.279.28.418.627.418 1.04v3.208l1.35-1.349c.267-.267.595-.401.984-.401s.729.146 1.02.438c.268.267.401.607.401 1.02 0 .414-.133.754-.4 1.021l-3.792 3.792a1.4 1.4 0 01-1.021.437 1.4 1.4 0 01-1.02-.437z" fill="#6C40D5"/></g></svg>