<svg width="35" height="35" viewBox="0 0 35 35" fill="none" xmlns="http://www.w3.org/2000/svg"><mask id="a" style="mask-type:alpha" maskUnits="userSpaceOnUse" x="0" y="0" width="35" height="35"><path fill="#D9D9D9" d="M0 0h35v35H0z"/></mask><g mask="url(#a)"><path d="M7.292 26.25c-1.216 0-2.249-.425-3.1-1.276-.85-.85-1.275-1.884-1.275-3.099 0-1.215.425-2.248 1.276-3.099.85-.85 1.883-1.276 3.099-1.276a4.16 4.16 0 012.534.82 4.285 4.285 0 011.549 2.097h7.73a8.403 8.403 0 012.058-4.339 8.746 8.746 0 014.066-2.588l-2.041-9.115h-4.23c-.413 0-.759-.14-1.038-.42a1.407 1.407 0 01-.42-1.038c0-.413.14-.76.42-1.04a1.41 1.41 0 011.038-.419h4.23c.656 0 1.257.213 1.803.64a2.76 2.76 0 011.04 1.62l2.771 12.324h-1.094c-1.604 0-2.977.57-4.12 1.713-1.142 1.143-1.713 2.516-1.713 4.12v1.458h-10.5a4.285 4.285 0 01-1.549 2.098 4.165 4.165 0 01-2.534.819zm0-2.917c.413 0 .76-.14 1.04-.42a1.41 1.41 0 00.418-1.038c0-.413-.14-.76-.419-1.04a1.415 1.415 0 00-1.04-.418c-.413 0-.76.14-1.04.418a1.42 1.42 0 00-.418 1.04c0 .413.14.76.419 1.038.28.28.626.42 1.04.42zm20.416 2.917c-1.215 0-2.248-.425-3.099-1.276-.85-.85-1.276-1.884-1.276-3.099 0-1.215.426-2.248 1.276-3.099.851-.85 1.884-1.276 3.1-1.276 1.215 0 2.248.425 3.098 1.276.851.85 1.276 1.884 1.276 3.099 0 1.215-.425 2.248-1.276 3.099-.85.85-1.883 1.276-3.099 1.276zm0-2.917c.414 0 .76-.14 1.039-.42.28-.279.42-.625.42-1.038 0-.413-.14-.76-.42-1.04a1.41 1.41 0 00-1.039-.418c-.413 0-.759.14-1.038.418-.28.28-.42.627-.42 1.04 0 .413.14.76.42 1.038.279.28.625.42 1.038.42zm-8.75 10.209l-8.75-4.375h5.834V26.25l8.75 4.375h-5.834v2.917z" fill="#6C40D5"/></g></svg>