<svg width="123" height="122" viewBox="0 0 123 122" fill="none" xmlns="http://www.w3.org/2000/svg"><g filter="url(#filter0_f_1918_121)"><path d="M32.5 61c0-21.75 7.25-29 29-29s29 7.25 29 29-7.25 29-29 29-29-7.25-29-29z" fill="#A985FF"/></g><path d="M17.5 51c0-33 11-44 44-44s44 11 44 44-11 44-44 44-44-11-44-44z" fill="url(#paint0_linear_1918_121)"/><path d="M70.531 33C77.43 33 81.5 36.97 81.5 43.764h-8.462v.069c-3.928 0-7.111 3.104-7.111 6.933 0 3.829 3.183 6.933 7.11 6.933H81.5v.624C81.5 65.031 77.429 69 70.531 69H52.47c-6.9 0-10.97-3.97-10.97-10.677V43.677C41.5 36.969 45.571 33 52.469 33H70.53zm9.476 13.745c.824 0 1.493.652 1.493 1.456v5.06c-.01.801-.673 1.447-1.493 1.457h-6.81c-1.987.026-3.726-1.301-4.177-3.19a3.965 3.965 0 01.866-3.304 4.183 4.183 0 013.152-1.48h6.969zm-6.01 2.34h-.657a1.532 1.532 0 00-1.08.425 1.455 1.455 0 00-.449 1.048c0 .826.682 1.498 1.529 1.508h.658c.844 0 1.529-.667 1.529-1.49 0-.824-.685-1.491-1.53-1.491zm-11.733-8.303H50.976c-.838 0-1.52.657-1.53 1.474 0 .826.682 1.498 1.53 1.508h11.288c.845 0 1.53-.668 1.53-1.491 0-.823-.685-1.49-1.53-1.49z" fill="url(#paint1_linear_1918_121)"/><defs><linearGradient id="paint0_linear_1918_121" x1="61.5" y1="7" x2="61.5" y2="95" gradientUnits="userSpaceOnUse"><stop stop-color="#804AFF" stop-opacity=".3"/><stop offset="1" stop-color="#804AFF" stop-opacity=".7"/></linearGradient><linearGradient id="paint1_linear_1918_121" x1="61.5" y1="40.154" x2="61.5" y2="63" gradientUnits="userSpaceOnUse"><stop stop-color="#fff"/><stop offset="1" stop-color="#fff" stop-opacity=".6"/></linearGradient><filter id="filter0_f_1918_121" x=".5" y="0" width="122" height="122" filterUnits="userSpaceOnUse" color-interpolation-filters="sRGB"><feFlood flood-opacity="0" result="BackgroundImageFix"/><feBlend in="SourceGraphic" in2="BackgroundImageFix" result="shape"/><feGaussianBlur stdDeviation="16" result="effect1_foregroundBlur_1918_121"/></filter></defs></svg>