<svg width="31" height="31" viewBox="0 0 31 31" fill="none" xmlns="http://www.w3.org/2000/svg"><path d="M16.958 15.755l3.282 3.281c.267.268.4.602.4 1.004 0 .4-.133.746-.4 1.038a1.42 1.42 0 01-1.039.438 1.42 1.42 0 01-1.04-.438l-3.099-3.099a3.45 3.45 0 01-.765-1.13 3.507 3.507 0 01-.255-1.349v-4.375c0-.413.14-.76.42-1.04a1.41 1.41 0 011.038-.418c.413 0 .76.14 1.04.418.279.28.418.627.418 1.04v4.63zM15.5 3.833c.413 0 .76.14 1.04.419.279.28.418.626.418 1.04 0 .413-.14.76-.418 1.04a1.42 1.42 0 01-1.04.418c-.413 0-.76-.14-1.038-.419-.28-.28-.42-.626-.42-1.04 0-.413.14-.76.42-1.04a1.41 1.41 0 011.038-.418zM27.167 15.5c0 .413-.14.76-.42 1.038-.28.28-.625.42-1.039.42-.413 0-.759-.14-1.038-.42a1.407 1.407 0 01-.42-1.038c0-.413.14-.76.42-1.04a1.41 1.41 0 011.038-.418c.414 0 .76.14 1.039.418.28.28.42.627.42 1.04zM15.5 24.25c.413 0 .76.14 1.04.42.279.279.418.625.418 1.038 0 .414-.14.76-.418 1.039-.28.28-.627.42-1.04.42-.413 0-.76-.14-1.038-.42a1.407 1.407 0 01-.42-1.039c0-.413.14-.759.42-1.038.279-.28.625-.42 1.038-.42zM6.75 15.5c0 .413-.14.76-.419 1.038-.28.28-.626.42-1.04.42-.413 0-.76-.14-1.04-.42a1.41 1.41 0 01-.418-1.038c0-.413.14-.76.419-1.04.28-.279.626-.418 1.04-.418.413 0 .76.14 1.04.418.278.28.418.627.418 1.04zm8.75 14.583c-2.017 0-3.913-.383-5.688-1.149a14.73 14.73 0 01-4.63-3.116 14.73 14.73 0 01-3.116-4.63C1.3 19.413.916 17.517.916 15.5s.384-3.913 1.15-5.688a14.73 14.73 0 013.116-4.63 14.752 14.752 0 014.63-3.118C11.587 1.3 13.482.917 15.5.917c2.017 0 3.913.382 5.688 1.147a14.752 14.752 0 014.63 3.118 14.73 14.73 0 013.116 4.63c.766 1.775 1.15 3.67 1.15 5.688 0 2.017-.384 3.913-1.15 5.688a14.73 14.73 0 01-3.116 4.63 14.73 14.73 0 01-4.63 3.116c-1.775.766-3.67 1.15-5.688 1.15zm0-2.916c3.257 0 6.016-1.13 8.276-3.391 2.26-2.26 3.39-5.02 3.39-8.276 0-3.257-1.13-6.016-3.39-8.276-2.26-2.26-5.02-3.39-8.276-3.39-3.257 0-6.016 1.13-8.276 3.39-2.26 2.26-3.39 5.019-3.39 8.276 0 3.257 1.13 6.016 3.39 8.276 2.26 2.26 5.019 3.39 8.276 3.39z" fill="#804AFF"/></svg>