<svg width="123" height="122" viewBox="0 0 123 122" fill="none" xmlns="http://www.w3.org/2000/svg"><g filter="url(#filter0_f_1918_119)"><path d="M32.5 61c0-21.75 7.25-29 29-29s29 7.25 29 29-7.25 29-29 29-29-7.25-29-29z" fill="#A985FF"/></g><path d="M17.5 51c0-33 11-44 44-44s44 11 44 44-11 44-44 44-44-11-44-44z" fill="url(#paint0_linear_1918_119)"/><path d="M61.934 31c1.513 0 2.882.84 3.638 2.08.368.6.614 1.34.552 2.12-.04.6.143 1.2.47 1.76 1.043 1.7 3.352 2.34 5.151 1.38a4.225 4.225 0 015.743 1.52l1.37 2.36a4.054 4.054 0 01-1.513 5.66c-1.737 1.02-2.35 3.28-1.308 5 .327.54.695 1 1.267 1.28.716.38 1.268.98 1.656 1.58.756 1.24.695 2.76-.04 4.1l-1.432 2.4c-.756 1.28-2.166 2.08-3.617 2.08-.716 0-1.513-.2-2.167-.6-.531-.34-1.144-.46-1.798-.46-2.024 0-3.72 1.66-3.782 3.64 0 2.3-1.88 4.1-4.23 4.1h-2.78c-2.371 0-4.252-1.8-4.252-4.1-.04-1.98-1.737-3.64-3.76-3.64-.675 0-1.288.12-1.8.46-.653.4-1.47.6-2.166.6-1.471 0-2.882-.8-3.638-2.08l-1.41-2.4c-.756-1.3-.797-2.86-.041-4.1.327-.6.94-1.2 1.635-1.58.572-.28.94-.74 1.288-1.28 1.022-1.72.409-3.98-1.329-5a4.088 4.088 0 01-1.512-5.66l1.37-2.36a4.249 4.249 0 015.763-1.52c1.778.96 4.088.32 5.13-1.38.327-.56.511-1.16.47-1.76-.04-.78.184-1.52.573-2.12A4.39 4.39 0 0159.052 31h2.882zm-1.41 14.36c-3.209 0-5.805 2.52-5.805 5.66s2.596 5.64 5.805 5.64c3.209 0 5.743-2.5 5.743-5.64 0-3.14-2.534-5.66-5.743-5.66z" fill="url(#paint1_linear_1918_119)"/><defs><linearGradient id="paint0_linear_1918_119" x1="61.5" y1="7" x2="61.5" y2="95" gradientUnits="userSpaceOnUse"><stop stop-color="#804AFF" stop-opacity=".3"/><stop offset="1" stop-color="#804AFF" stop-opacity=".7"/></linearGradient><linearGradient id="paint1_linear_1918_119" x1="60.5" y1="38.949" x2="60.5" y2="64.334" gradientUnits="userSpaceOnUse"><stop stop-color="#fff"/><stop offset="1" stop-color="#fff" stop-opacity=".6"/></linearGradient><filter id="filter0_f_1918_119" x=".5" y="0" width="122" height="122" filterUnits="userSpaceOnUse" color-interpolation-filters="sRGB"><feFlood flood-opacity="0" result="BackgroundImageFix"/><feBlend in="SourceGraphic" in2="BackgroundImageFix" result="shape"/><feGaussianBlur stdDeviation="16" result="effect1_foregroundBlur_1918_119"/></filter></defs></svg>