<svg width="123" height="122" viewBox="0 0 123 122" fill="none" xmlns="http://www.w3.org/2000/svg"><g filter="url(#filter0_f_1918_120)"><path d="M32.5 61c0-21.75 7.25-29 29-29s29 7.25 29 29-7.25 29-29 29-29-7.25-29-29z" fill="#A985FF"/></g><path d="M17.5 51c0-33 11-44 44-44s44 11 44 44-11 44-44 44-44-11-44-44z" fill="url(#paint0_linear_1918_120)"/><path fill-rule="evenodd" clip-rule="evenodd" d="M68.5 64a1 1 0 01-1 1H52.45c-.421 0-.791.267-.973.647-1.13 2.366-3.523 4.02-6.309 4.02-4.293 0-7.7-3.874-6.883-8.307.513-2.753 2.73-5.017 5.483-5.553 3.381-.65 6.4 1.115 7.71 3.876.181.382.552.65.974.65h10.746c.489 0 .902-.354 1.012-.83a14.026 14.026 0 019.614-10.253c.01 0 .019-.01.016-.02l-3.087-13.782a1 1 0 00-.976-.781H62.5a1 1 0 01-1-1V31a1 1 0 011-1h8.077c2.17 0 4.06 1.517 4.55 3.64l4.159 18.474a1 1 0 01-.976 1.22h-.476a9.33 9.33 0 00-9.334 9.333V64zm-25.666-1.333A2.34 2.34 0 0045.167 65a2.34 2.34 0 002.333-2.333 2.34 2.34 0 00-2.333-2.334 2.34 2.34 0 00-2.333 2.334zm28 0c0-3.874 3.127-7 7-7s7 3.126 7 7c0 3.873-3.127 7-7 7a6.99 6.99 0 01-7-7zm4.667 0A2.34 2.34 0 0077.834 65a2.34 2.34 0 002.333-2.334 2.34 2.34 0 00-2.333-2.333 2.34 2.34 0 00-2.333 2.334z" fill="url(#paint1_linear_1918_120)"/><defs><linearGradient id="paint0_linear_1918_120" x1="61.5" y1="7" x2="61.5" y2="95" gradientUnits="userSpaceOnUse"><stop stop-color="#804AFF" stop-opacity=".3"/><stop offset="1" stop-color="#804AFF" stop-opacity=".7"/></linearGradient><linearGradient id="paint1_linear_1918_120" x1="60" y1="52" x2="60" y2="71.5" gradientUnits="userSpaceOnUse"><stop stop-color="#fff"/><stop offset="1" stop-color="#fff" stop-opacity=".6"/></linearGradient><filter id="filter0_f_1918_120" x=".5" y="0" width="122" height="122" filterUnits="userSpaceOnUse" color-interpolation-filters="sRGB"><feFlood flood-opacity="0" result="BackgroundImageFix"/><feBlend in="SourceGraphic" in2="BackgroundImageFix" result="shape"/><feGaussianBlur stdDeviation="16" result="effect1_foregroundBlur_1918_120"/></filter></defs></svg>