<svg width="35" height="35" viewBox="0 0 35 35" fill="none" xmlns="http://www.w3.org/2000/svg"><mask id="a" style="mask-type:alpha" maskUnits="userSpaceOnUse" x="0" y="0" width="35" height="35"><path fill="#D9D9D9" d="M0 0h35v35H0z"/></mask><g mask="url(#a)"><path d="M15.24 22.604c.583.584 1.336.869 2.26.856.924-.011 1.604-.345 2.042-1.002l6.161-9.224c.219-.34.188-.65-.092-.928-.279-.28-.588-.311-.929-.092l-9.224 6.161c-.656.438-1.002 1.106-1.038 2.005-.037.9.236 1.64.82 2.224zm-7.803 6.563a3.09 3.09 0 01-1.458-.365 2.766 2.766 0 01-1.094-1.02A14.876 14.876 0 013.427 24.3a14.48 14.48 0 01-.51-3.883c0-2.018.383-3.908 1.149-5.67a14.844 14.844 0 013.135-4.63A14.8 14.8 0 0111.85 6.98a14.119 14.119 0 015.65-1.147c1.094 0 2.151.116 3.172.346 1.02.231 2.005.578 2.953 1.04.51.267.808.632.892 1.094.086.461-.041.899-.382 1.312-.194.219-.461.352-.802.401-.34.049-.644.012-.911-.11A10.946 10.946 0 0017.5 8.75c-3.233.001-5.985 1.137-8.257 3.41-2.273 2.272-3.41 5.025-3.41 8.258 0 1.02.14 2.03.419 3.026.28.996.675 1.932 1.185 2.807h20.125a10.66 10.66 0 001.223-2.88c.254-.997.382-2.03.382-3.1 0-.85-.103-1.682-.31-2.496a11.048 11.048 0 00-.893-2.352 1.399 1.399 0 01-.146-.985c.073-.34.243-.62.51-.838.389-.34.814-.438 1.276-.292.462.146.802.462 1.021.948a15.15 15.15 0 011.02 2.863 15.8 15.8 0 01.438 3.08c0 1.385-.163 2.71-.491 3.974a14.584 14.584 0 01-1.477 3.61 2.766 2.766 0 01-1.094 1.02 3.088 3.088 0 01-1.459.365H7.438z" fill="#804AFF"/></g></svg>