<svg width="35" height="35" viewBox="0 0 35 35" fill="none" xmlns="http://www.w3.org/2000/svg">
<mask id="mask0_1652_268" style="mask-type:alpha" maskUnits="userSpaceOnUse" x="0" y="0" width="35" height="35">
<rect width="35" height="35" fill="#D9D9D9"/>
</mask>
<g mask="url(#mask0_1652_268)">
<path d="M17.5 32.0834C17.0868 32.0834 16.7407 31.9434 16.4617 31.6634C16.1817 31.3843 16.0417 31.0382 16.0417 30.625V27.4167L14.6927 28.7657C14.4253 29.033 14.0972 29.1667 13.7083 29.1667C13.3194 29.1667 12.9792 29.0209 12.6875 28.7292C12.4201 28.4618 12.2865 28.1216 12.2865 27.7084C12.2865 27.2952 12.4201 26.9549 12.6875 26.6875L16.4792 22.8959C16.7708 22.6042 17.1111 22.4584 17.5 22.4584C17.8889 22.4584 18.2292 22.6042 18.5208 22.8959L22.349 26.724C22.6163 26.9914 22.75 27.3195 22.75 27.7084C22.75 28.0973 22.6042 28.4375 22.3125 28.7292C22.0451 28.9966 21.7112 29.1303 21.3106 29.1303C20.9091 29.1303 20.5625 28.9966 20.2708 28.7292L18.9583 27.4896V30.6615C18.9583 31.0747 18.8188 31.415 18.5398 31.6823C18.2598 31.9497 17.9132 32.0834 17.5 32.0834ZM7.2552 20.4167C6.84201 20.4167 6.50173 20.2767 6.23437 19.9967C5.96701 19.7177 5.83333 19.3716 5.83333 18.9584C5.83333 18.5452 5.97284 18.1986 6.25187 17.9186C6.53187 17.6396 6.87847 17.5 7.29166 17.5H27.7448C28.158 17.5 28.4983 17.6396 28.7656 17.9186C29.033 18.1986 29.1667 18.5452 29.1667 18.9584C29.1667 19.3716 29.0267 19.7177 28.7467 19.9967C28.4676 20.2767 28.1215 20.4167 27.7083 20.4167H7.2552ZM7.2552 16.0417C6.84201 16.0417 6.50173 15.9017 6.23437 15.6217C5.96701 15.3427 5.83333 14.9966 5.83333 14.5834C5.83333 14.1702 5.97284 13.8236 6.25187 13.5436C6.53187 13.2646 6.87847 13.125 7.29166 13.125H27.7448C28.158 13.125 28.4983 13.2646 28.7656 13.5436C29.033 13.8236 29.1667 14.1702 29.1667 14.5834C29.1667 14.9966 29.0267 15.3427 28.7467 15.6217C28.4676 15.9017 28.1215 16.0417 27.7083 16.0417H7.2552ZM16.4792 10.6459L12.651 6.81775C12.3837 6.55039 12.25 6.22226 12.25 5.83337C12.25 5.44449 12.3958 5.10421 12.6875 4.81254C12.9549 4.54518 13.2951 4.4115 13.7083 4.4115C14.1215 4.4115 14.4618 4.54518 14.7292 4.81254L16.0417 6.12504V2.88025C16.0417 2.46705 16.1817 2.12678 16.4617 1.85942C16.7407 1.59205 17.0868 1.45837 17.5 1.45837C17.9132 1.45837 18.2598 1.59789 18.5398 1.87692C18.8188 2.15692 18.9583 2.50351 18.9583 2.91671V6.12504L20.3073 4.77608C20.5746 4.50872 20.9028 4.37504 21.2917 4.37504C21.6806 4.37504 22.0208 4.52087 22.3125 4.81254C22.5799 5.0799 22.7135 5.42018 22.7135 5.83337C22.7135 6.24657 22.5799 6.58685 22.3125 6.85421L18.5208 10.6459C18.2292 10.9375 17.8889 11.0834 17.5 11.0834C17.1111 11.0834 16.7708 10.9375 16.4792 10.6459Z" fill="#6C40D5"/>
</g>
</svg>
