<svg width="35" height="35" viewBox="0 0 35 35" fill="none" xmlns="http://www.w3.org/2000/svg">
<mask id="mask0_1648_243" style="mask-type:alpha" maskUnits="userSpaceOnUse" x="0" y="0" width="35" height="35">
<rect width="35" height="35" fill="#D9D9D9"/>
</mask>
<g mask="url(#mask0_1648_243)">
<path d="M7.29167 26.25C6.07639 26.25 5.04341 25.8247 4.19271 24.974C3.34202 24.1233 2.91667 23.0903 2.91667 21.875C2.91667 20.6598 3.34202 19.6268 4.19271 18.7761C5.04341 17.9254 6.07639 17.5 7.29167 17.5C8.23959 17.5 9.08445 17.7732 9.82625 18.3196C10.5671 18.867 11.0833 19.566 11.375 20.4167H19.1042C19.3715 18.7639 20.0579 17.3177 21.1633 16.0782C22.2697 14.8386 23.625 13.9757 25.2292 13.4896L23.1875 4.37504H18.9583C18.5451 4.37504 18.199 4.23504 17.92 3.95504C17.64 3.67601 17.5 3.3299 17.5 2.91671C17.5 2.50351 17.64 2.15692 17.92 1.87692C18.199 1.59789 18.5451 1.45837 18.9583 1.45837H23.1875C23.8438 1.45837 24.4451 1.67129 24.9915 2.09712C25.5388 2.52199 25.8854 3.06254 26.0313 3.71879L28.8021 16.0417H27.7083C26.1042 16.0417 24.7309 16.6129 23.5885 17.7552C22.4462 18.8976 21.875 20.2709 21.875 21.875V23.3334H11.375C11.0833 24.1841 10.5671 24.8831 9.82625 25.4305C9.08445 25.9768 8.23959 26.25 7.29167 26.25ZM7.29167 23.3334C7.70487 23.3334 8.05146 23.1934 8.33146 22.9134C8.61049 22.6343 8.75 22.2882 8.75 21.875C8.75 21.4618 8.61049 21.1152 8.33146 20.8352C8.05146 20.5562 7.70487 20.4167 7.29167 20.4167C6.87848 20.4167 6.53188 20.5562 6.25188 20.8352C5.97285 21.1152 5.83334 21.4618 5.83334 21.875C5.83334 22.2882 5.97285 22.6343 6.25188 22.9134C6.53188 23.1934 6.87848 23.3334 7.29167 23.3334ZM27.7083 26.25C26.4931 26.25 25.4601 25.8247 24.6094 24.974C23.7587 24.1233 23.3333 23.0903 23.3333 21.875C23.3333 20.6598 23.7587 19.6268 24.6094 18.7761C25.4601 17.9254 26.4931 17.5 27.7083 17.5C28.9236 17.5 29.9566 17.9254 30.8073 18.7761C31.658 19.6268 32.0833 20.6598 32.0833 21.875C32.0833 23.0903 31.658 24.1233 30.8073 24.974C29.9566 25.8247 28.9236 26.25 27.7083 26.25ZM27.7083 23.3334C28.1215 23.3334 28.4676 23.1934 28.7467 22.9134C29.0267 22.6343 29.1667 22.2882 29.1667 21.875C29.1667 21.4618 29.0267 21.1152 28.7467 20.8352C28.4676 20.5562 28.1215 20.4167 27.7083 20.4167C27.2951 20.4167 26.949 20.5562 26.67 20.8352C26.39 21.1152 26.25 21.4618 26.25 21.875C26.25 22.2882 26.39 22.6343 26.67 22.9134C26.949 23.1934 27.2951 23.3334 27.7083 23.3334ZM18.9583 33.5417L10.2083 29.1667H16.0417V26.25L24.7917 30.625H18.9583V33.5417Z" fill="#6C40D5"/>
</g>
</svg>
