<svg width="31" height="31" viewBox="0 0 31 31" fill="none" xmlns="http://www.w3.org/2000/svg">
<path d="M16.9583 15.7552L20.2396 19.0364C20.5069 19.3038 20.6406 19.6382 20.6406 20.0397C20.6406 20.4403 20.5069 20.7864 20.2396 21.0781C19.9479 21.3697 19.6018 21.5156 19.2012 21.5156C18.7997 21.5156 18.4531 21.3697 18.1614 21.0781L15.0625 17.9791C14.7222 17.6388 14.467 17.2621 14.2969 16.8489C14.1267 16.4357 14.0417 15.9861 14.0417 15.5V11.125C14.0417 10.7118 14.1817 10.3652 14.4617 10.0852C14.7407 9.80614 15.0868 9.66663 15.5 9.66663C15.9132 9.66663 16.2598 9.80614 16.5398 10.0852C16.8188 10.3652 16.9583 10.7118 16.9583 11.125V15.7552ZM15.5 3.83329C15.9132 3.83329 16.2598 3.97281 16.5398 4.25183C16.8188 4.53183 16.9583 4.87843 16.9583 5.29163C16.9583 5.70482 16.8188 6.05142 16.5398 6.33142C16.2598 6.61045 15.9132 6.74996 15.5 6.74996C15.0868 6.74996 14.7407 6.61045 14.4617 6.33142C14.1817 6.05142 14.0417 5.70482 14.0417 5.29163C14.0417 4.87843 14.1817 4.53183 14.4617 4.25183C14.7407 3.97281 15.0868 3.83329 15.5 3.83329ZM27.1667 15.5C27.1667 15.9132 27.0267 16.2593 26.7467 16.5383C26.4676 16.8183 26.1215 16.9583 25.7083 16.9583C25.2951 16.9583 24.949 16.8183 24.67 16.5383C24.39 16.2593 24.25 15.9132 24.25 15.5C24.25 15.0868 24.39 14.7402 24.67 14.4602C24.949 14.1811 25.2951 14.0416 25.7083 14.0416C26.1215 14.0416 26.4676 14.1811 26.7467 14.4602C27.0267 14.7402 27.1667 15.0868 27.1667 15.5ZM15.5 24.25C15.9132 24.25 16.2598 24.39 16.5398 24.67C16.8188 24.949 16.9583 25.2951 16.9583 25.7083C16.9583 26.1215 16.8188 26.4676 16.5398 26.7466C16.2598 27.0266 15.9132 27.1666 15.5 27.1666C15.0868 27.1666 14.7407 27.0266 14.4617 26.7466C14.1817 26.4676 14.0417 26.1215 14.0417 25.7083C14.0417 25.2951 14.1817 24.949 14.4617 24.67C14.7407 24.39 15.0868 24.25 15.5 24.25ZM6.74999 15.5C6.74999 15.9132 6.61048 16.2593 6.33145 16.5383C6.05145 16.8183 5.70485 16.9583 5.29166 16.9583C4.87846 16.9583 4.53186 16.8183 4.25186 16.5383C3.97284 16.2593 3.83332 15.9132 3.83332 15.5C3.83332 15.0868 3.97284 14.7402 4.25186 14.4602C4.53186 14.1811 4.87846 14.0416 5.29166 14.0416C5.70485 14.0416 6.05145 14.1811 6.33145 14.4602C6.61048 14.7402 6.74999 15.0868 6.74999 15.5ZM15.5 30.0833C13.4826 30.0833 11.5868 29.7002 9.81249 28.9341C8.03818 28.169 6.49478 27.1302 5.18228 25.8177C3.86978 24.5052 2.83096 22.9618 2.06582 21.1875C1.29971 19.4132 0.916656 17.5173 0.916656 15.5C0.916656 13.4826 1.29971 11.5868 2.06582 9.81246C2.83096 8.03815 3.86978 6.49475 5.18228 5.18225C6.49478 3.86975 8.03818 2.83045 9.81249 2.06433C11.5868 1.2992 13.4826 0.916626 15.5 0.916626C17.5173 0.916626 19.4132 1.2992 21.1875 2.06433C22.9618 2.83045 24.5052 3.86975 25.8177 5.18225C27.1302 6.49475 28.169 8.03815 28.9342 9.81246C29.7003 11.5868 30.0833 13.4826 30.0833 15.5C30.0833 17.5173 29.7003 19.4132 28.9342 21.1875C28.169 22.9618 27.1302 24.5052 25.8177 25.8177C24.5052 27.1302 22.9618 28.169 21.1875 28.9341C19.4132 29.7002 17.5173 30.0833 15.5 30.0833ZM15.5 27.1666C18.7569 27.1666 21.5156 26.0364 23.776 23.776C26.0364 21.5156 27.1667 18.7569 27.1667 15.5C27.1667 12.243 26.0364 9.48433 23.776 7.22392C21.5156 4.9635 18.7569 3.83329 15.5 3.83329C12.243 3.83329 9.48436 4.9635 7.22395 7.22392C4.96353 9.48433 3.83332 12.243 3.83332 15.5C3.83332 18.7569 4.96353 21.5156 7.22395 23.776C9.48436 26.0364 12.243 27.1666 15.5 27.1666Z" fill="#804AFF"/>
</svg>
