<svg width="123" height="122" viewBox="0 0 123 122" fill="none" xmlns="http://www.w3.org/2000/svg">
<g filter="url(#filter0_f_1918_119)">
<path d="M32.5 61C32.5 39.25 39.75 32 61.5 32C83.25 32 90.5 39.25 90.5 61C90.5 82.75 83.25 90 61.5 90C39.75 90 32.5 82.75 32.5 61Z" fill="#A985FF"/>
</g>
<path d="M17.5 51C17.5 18 28.5 7 61.5 7C94.5 7 105.5 18 105.5 51C105.5 84 94.5 95 61.5 95C28.5 95 17.5 84 17.5 51Z" fill="url(#paint0_linear_1918_119)"/>
<path d="M61.9342 31.0002C63.4467 31.0002 64.8162 31.8402 65.5724 33.0802C65.9403 33.6802 66.1856 34.4202 66.1243 35.2002C66.0834 35.8002 66.2673 36.4002 66.5944 36.9602C67.6368 38.6602 69.9464 39.3002 71.745 38.3402C73.7685 37.1802 76.3234 37.8802 77.4884 39.8602L78.8579 42.2202C80.0433 44.2002 79.3893 46.7402 77.3454 47.8802C75.608 48.9002 74.9949 51.1602 76.0373 52.8802C76.3643 53.4202 76.7322 53.8802 77.3045 54.1602C78.0198 54.5402 78.5717 55.1402 78.96 55.7402C79.7163 56.9802 79.655 58.5002 78.9192 59.8402L77.4884 62.2402C76.7322 63.5202 75.3219 64.3202 73.8707 64.3202C73.1553 64.3202 72.3582 64.1202 71.7042 63.7202C71.1727 63.3802 70.5596 63.2602 69.9055 63.2602C67.882 63.2602 66.1856 64.9202 66.1243 66.9002C66.1243 69.2002 64.2439 71.0002 61.8934 71.0002H59.1136C56.7427 71.0002 54.8623 69.2002 54.8623 66.9002C54.8214 64.9202 53.125 63.2602 51.1015 63.2602C50.427 63.2602 49.8138 63.3802 49.3028 63.7202C48.6488 64.1202 47.8312 64.3202 47.1363 64.3202C45.6647 64.3202 44.2544 63.5202 43.4981 62.2402L42.0878 59.8402C41.3316 58.5402 41.2907 56.9802 42.0469 55.7402C42.374 55.1402 42.9871 54.5402 43.6821 54.1602C44.2544 53.8802 44.6223 53.4202 44.9697 52.8802C45.9917 51.1602 45.3785 48.9002 43.6412 47.8802C41.6177 46.7402 40.9637 44.2002 42.1287 42.2202L43.4981 39.8602C44.6836 37.8802 47.2181 37.1802 49.262 38.3402C51.0402 39.3002 53.3498 38.6602 54.3922 36.9602C54.7192 36.4002 54.9032 35.8002 54.8623 35.2002C54.8214 34.4202 55.0462 33.6802 55.4346 33.0802C56.1908 31.8402 57.5603 31.0402 59.0523 31.0002H61.9342ZM60.5239 45.3602C57.315 45.3602 54.7192 47.8802 54.7192 51.0202C54.7192 54.1602 57.315 56.6602 60.5239 56.6602C63.7329 56.6602 66.2673 54.1602 66.2673 51.0202C66.2673 47.8802 63.7329 45.3602 60.5239 45.3602Z" fill="url(#paint1_linear_1918_119)"/>
<defs>
<filter id="filter0_f_1918_119" x="0.5" y="0" width="122" height="122" filterUnits="userSpaceOnUse" color-interpolation-filters="sRGB">
<feFlood flood-opacity="0" result="BackgroundImageFix"/>
<feBlend mode="normal" in="SourceGraphic" in2="BackgroundImageFix" result="shape"/>
<feGaussianBlur stdDeviation="16" result="effect1_foregroundBlur_1918_119"/>
</filter>
<linearGradient id="paint0_linear_1918_119" x1="61.5" y1="7" x2="61.5" y2="95" gradientUnits="userSpaceOnUse">
<stop stop-color="#804AFF" stop-opacity="0.3"/>
<stop offset="1" stop-color="#804AFF" stop-opacity="0.7"/>
</linearGradient>
<linearGradient id="paint1_linear_1918_119" x1="60.4998" y1="38.9489" x2="60.4998" y2="64.3335" gradientUnits="userSpaceOnUse">
<stop stop-color="white"/>
<stop offset="1" stop-color="white" stop-opacity="0.6"/>
</linearGradient>
</defs>
</svg>
