<svg width="123" height="122" viewBox="0 0 123 122" fill="none" xmlns="http://www.w3.org/2000/svg">
<g filter="url(#filter0_f_1918_120)">
<path d="M32.5 61C32.5 39.25 39.75 32 61.5 32C83.25 32 90.5 39.25 90.5 61C90.5 82.75 83.25 90 61.5 90C39.75 90 32.5 82.75 32.5 61Z" fill="#A985FF"/>
</g>
<path d="M17.5 51C17.5 18 28.5 7 61.5 7C94.5 7 105.5 18 105.5 51C105.5 84 94.5 95 61.5 95C28.5 95 17.5 84 17.5 51Z" fill="url(#paint0_linear_1918_120)"/>
<path fill-rule="evenodd" clip-rule="evenodd" d="M68.5004 64C68.5004 64.5523 68.0527 65 67.5004 65H52.4485C52.0275 65 51.6577 65.267 51.4762 65.6469C50.3452 68.0134 47.953 69.6667 45.1671 69.6667C40.8738 69.6667 37.4671 65.7933 38.2838 61.36C38.7971 58.6067 41.0138 56.3433 43.7671 55.8067C47.1485 55.1564 50.1675 56.9225 51.4772 59.6832C51.6582 60.0647 52.0288 60.3333 52.4511 60.3333H63.1972C63.6858 60.3333 64.0991 59.979 64.2088 59.5029C65.3403 54.5941 69.0454 50.6878 73.8181 49.2507C73.8196 49.2502 73.8212 49.25 73.8229 49.25C73.8336 49.25 73.8415 49.2401 73.8392 49.2296L70.7521 35.4481C70.6498 34.9913 70.2444 34.6667 69.7763 34.6667H62.5004C61.9481 34.6667 61.5004 34.219 61.5004 33.6667V31C61.5004 30.4477 61.9481 30 62.5004 30H70.5771C72.7471 30 74.6371 31.5167 75.1271 33.64L79.2859 52.1137C79.4266 52.7389 78.9512 53.3333 78.3103 53.3333H77.8338C72.6771 53.3333 68.5004 57.51 68.5004 62.6667V64ZM42.8338 62.6667C42.8338 63.95 43.8838 65 45.1671 65C46.4504 65 47.5004 63.95 47.5004 62.6667C47.5004 61.3833 46.4504 60.3333 45.1671 60.3333C43.8838 60.3333 42.8338 61.3833 42.8338 62.6667ZM70.834 62.6665C70.834 58.7932 73.9607 55.6665 77.834 55.6665C81.7073 55.6665 84.834 58.7932 84.834 62.6665C84.834 66.5398 81.7073 69.6665 77.834 69.6665C73.9607 69.6665 70.834 66.5398 70.834 62.6665ZM75.5007 62.6665C75.5007 63.9498 76.5507 64.9998 77.834 64.9998C79.1173 64.9998 80.1673 63.9498 80.1673 62.6665C80.1673 61.3832 79.1173 60.3332 77.834 60.3332C76.5507 60.3332 75.5007 61.3832 75.5007 62.6665Z" fill="url(#paint1_linear_1918_120)"/>
<defs>
<filter id="filter0_f_1918_120" x="0.5" y="0" width="122" height="122" filterUnits="userSpaceOnUse" color-interpolation-filters="sRGB">
<feFlood flood-opacity="0" result="BackgroundImageFix"/>
<feBlend mode="normal" in="SourceGraphic" in2="BackgroundImageFix" result="shape"/>
<feGaussianBlur stdDeviation="16" result="effect1_foregroundBlur_1918_120"/>
</filter>
<linearGradient id="paint0_linear_1918_120" x1="61.5" y1="7" x2="61.5" y2="95" gradientUnits="userSpaceOnUse">
<stop stop-color="#804AFF" stop-opacity="0.3"/>
<stop offset="1" stop-color="#804AFF" stop-opacity="0.7"/>
</linearGradient>
<linearGradient id="paint1_linear_1918_120" x1="60" y1="52" x2="60" y2="71.5" gradientUnits="userSpaceOnUse">
<stop stop-color="white"/>
<stop offset="1" stop-color="white" stop-opacity="0.6"/>
</linearGradient>
</defs>
</svg>
