<svg width="35" height="35" viewBox="0 0 35 35" fill="none" xmlns="http://www.w3.org/2000/svg">
<mask id="mask0_1648_217" style="mask-type:alpha" maskUnits="userSpaceOnUse" x="0" y="0" width="35" height="35">
<rect width="35" height="35" fill="#D9D9D9"/>
</mask>
<g mask="url(#mask0_1648_217)">
<path d="M15.2396 22.6042C15.8229 23.1875 16.5764 23.4729 17.5 23.4602C18.4236 23.4486 19.1042 23.1146 19.5417 22.4584L25.7031 13.2344C25.9219 12.8941 25.8912 12.5845 25.6112 12.3055C25.3322 12.0255 25.0226 11.9948 24.6823 12.2136L15.4583 18.375C14.8021 18.8125 14.456 19.4809 14.42 20.3802C14.383 21.2796 14.6562 22.0209 15.2396 22.6042ZM7.43749 29.1667C6.92707 29.1667 6.44096 29.0452 5.97916 28.8021C5.51735 28.5591 5.15277 28.2188 4.88541 27.7813C4.25346 26.6875 3.76735 25.5272 3.42707 24.3002C3.0868 23.0723 2.91666 21.7778 2.91666 20.4167C2.91666 18.3993 3.29971 16.5093 4.06582 14.7467C4.83096 12.985 5.8761 11.4416 7.20124 10.1165C8.52541 8.79233 10.0746 7.74719 11.8489 6.98108C13.6233 6.21594 15.5069 5.83337 17.5 5.83337C18.5937 5.83337 19.651 5.94858 20.6719 6.179C21.6927 6.41039 22.6771 6.75698 23.625 7.21879C24.1354 7.48615 24.4329 7.85073 24.5175 8.31254C24.603 8.77435 24.4757 9.21185 24.1354 9.62504C23.941 9.84379 23.6736 9.97747 23.3333 10.0261C22.993 10.0747 22.6892 10.0382 22.4219 9.91671C21.6441 9.52782 20.842 9.23615 20.0156 9.04171C19.1892 8.84726 18.3507 8.75004 17.5 8.75004C14.2674 8.75004 11.515 9.88608 9.24291 12.1582C6.96985 14.4312 5.83332 17.1841 5.83332 20.4167C5.83332 21.4375 5.97284 22.4462 6.25186 23.4428C6.53186 24.4393 6.92707 25.375 7.43749 26.25H27.5625C28.1215 25.3264 28.5289 24.3664 28.7846 23.3698C29.0393 22.3733 29.1667 21.3403 29.1667 20.2709C29.1667 19.4202 29.0636 18.588 28.8575 17.7742C28.6504 16.9595 28.3524 16.1754 27.9635 15.4219C27.7934 15.1059 27.7448 14.7778 27.8177 14.4375C27.8906 14.0973 28.0608 13.8177 28.3281 13.599C28.717 13.2587 29.1423 13.1615 29.6042 13.3073C30.066 13.4532 30.4062 13.7691 30.625 14.2552C31.0625 15.1789 31.4028 16.1331 31.6458 17.118C31.8889 18.1018 32.0347 19.1285 32.0833 20.198C32.0833 21.5834 31.9195 22.908 31.5919 24.1719C31.2633 25.4358 30.7708 26.6389 30.1146 27.7813C29.8472 28.2188 29.4826 28.5591 29.0208 28.8021C28.559 29.0452 28.0729 29.1667 27.5625 29.1667H7.43749Z" fill="#804AFF"/>
</g>
</svg>
