<svg width="123" height="122" viewBox="0 0 123 122" fill="none" xmlns="http://www.w3.org/2000/svg">
<g filter="url(#filter0_f_1918_121)">
<path d="M32.5 61C32.5 39.25 39.75 32 61.5 32C83.25 32 90.5 39.25 90.5 61C90.5 82.75 83.25 90 61.5 90C39.75 90 32.5 82.75 32.5 61Z" fill="#A985FF"/>
</g>
<path d="M17.5 51C17.5 18 28.5 7 61.5 7C94.5 7 105.5 18 105.5 51C105.5 84 94.5 95 61.5 95C28.5 95 17.5 84 17.5 51Z" fill="url(#paint0_linear_1918_121)"/>
<path d="M70.5311 33C77.4289 33 81.5 36.9692 81.5 43.7636H73.0378V43.8329C69.1104 43.8329 65.9267 46.937 65.9267 50.766C65.9267 54.595 69.1104 57.6991 73.0378 57.6991H81.5V58.3231C81.5 65.0308 77.4289 69 70.5311 69H52.4689C45.5711 69 41.5 65.0308 41.5 58.3231V43.6769C41.5 36.9692 45.5711 33 52.4689 33H70.5311ZM80.0067 46.7448C80.8314 46.7448 81.5 47.3967 81.5 48.2008V53.2619C81.4904 54.0621 80.8274 54.7085 80.0067 54.7179H73.1978C71.2096 54.7439 69.471 53.4167 69.02 51.5286C68.7942 50.3566 69.1112 49.1471 69.8861 48.2244C70.6611 47.3017 71.8147 46.7601 73.0378 46.7448H80.0067ZM73.9978 49.0847H73.34C72.9362 49.0801 72.5472 49.2333 72.26 49.5101C71.9727 49.7869 71.8111 50.1643 71.8111 50.558C71.8111 51.3841 72.4928 52.0565 73.34 52.066H73.9978C74.8422 52.066 75.5267 51.3986 75.5267 50.5753C75.5267 49.7521 74.8422 49.0847 73.9978 49.0847ZM62.2644 40.7824H50.9756C50.1381 40.7823 49.4564 41.4392 49.4467 42.2557C49.4467 43.0817 50.1283 43.7541 50.9756 43.7636H62.2644C63.1088 43.7636 63.7933 43.0962 63.7933 42.273C63.7933 41.4497 63.1088 40.7824 62.2644 40.7824Z" fill="url(#paint1_linear_1918_121)"/>
<defs>
<filter id="filter0_f_1918_121" x="0.5" y="0" width="122" height="122" filterUnits="userSpaceOnUse" color-interpolation-filters="sRGB">
<feFlood flood-opacity="0" result="BackgroundImageFix"/>
<feBlend mode="normal" in="SourceGraphic" in2="BackgroundImageFix" result="shape"/>
<feGaussianBlur stdDeviation="16" result="effect1_foregroundBlur_1918_121"/>
</filter>
<linearGradient id="paint0_linear_1918_121" x1="61.5" y1="7" x2="61.5" y2="95" gradientUnits="userSpaceOnUse">
<stop stop-color="#804AFF" stop-opacity="0.3"/>
<stop offset="1" stop-color="#804AFF" stop-opacity="0.7"/>
</linearGradient>
<linearGradient id="paint1_linear_1918_121" x1="61.5" y1="40.1538" x2="61.5" y2="63" gradientUnits="userSpaceOnUse">
<stop stop-color="white"/>
<stop offset="1" stop-color="white" stop-opacity="0.6"/>
</linearGradient>
</defs>
</svg>
