<svg width="181" height="32" viewBox="0 0 181 32" fill="none" xmlns="http://www.w3.org/2000/svg">
<path d="M39.7178 12.4858H43.8546V23.2727H46.5251V12.4858H50.6618V9.97238H39.7178V12.4858ZM61.6098 16.3084C61.6098 16.3084 63.1022 15.5753 63.1022 13.664C63.1022 11.5957 61.4527 9.97238 59.0964 9.97238H52.8913V23.2727H59.5415C61.8978 23.2727 63.5473 21.6495 63.5473 19.424C63.5473 17.1986 61.6098 16.3084 61.6098 16.3084ZM58.8084 12.1717C59.6986 12.1717 60.4317 12.9309 60.4317 13.7949C60.4317 14.6851 59.6986 15.4444 58.8084 15.4444H55.5357V12.1717H58.8084ZM59.2535 21.0473H55.5357V17.6437H59.2535C60.1437 17.6437 60.8767 18.4029 60.8767 19.2669C60.8767 20.3142 60.1437 21.0473 59.2535 21.0473ZM75.6607 16.6226C75.6607 19.136 73.8804 20.9164 71.9429 20.9164C70.0317 20.9164 68.2513 19.136 68.2513 16.6226C68.2513 14.1091 70.0317 12.3287 71.9429 12.3287C73.8804 12.3287 75.6607 14.1091 75.6607 16.6226ZM78.3051 16.6226C78.3051 12.6167 75.5037 9.81529 71.9429 9.81529C68.4084 9.81529 65.6069 12.6167 65.6069 16.6226C65.6069 20.6022 68.4084 23.4298 71.9429 23.4298C75.5037 23.4298 78.3051 20.6022 78.3051 16.6226ZM90.1506 9.97238L83.7884 19.2669V9.97238H81.144V23.2727H83.7884L90.1506 13.952V23.2727H92.8211V9.97238H90.1506ZM86.904 8.03492C88.9724 8.03492 90.4647 6.56874 90.7527 4.63129H88.6844C88.5273 5.52147 87.7942 6.25456 86.904 6.25456C86.0138 6.25456 85.2807 5.52147 85.1237 4.63129H83.0553C83.3695 6.56874 84.8357 8.03492 86.904 8.03492ZM114.263 9.52729C111.016 9.52729 108.503 12.0407 107.9 15.1302H106.277V9.6582H102.873V23.2727H106.277V18.0887H107.9C108.503 20.9164 111.016 23.4298 114.263 23.4298C117.823 23.4298 120.782 20.4713 120.782 16.4655C120.782 12.4858 117.823 9.52729 114.263 9.52729ZM114.263 20.1571C112.639 20.1571 111.173 18.6909 111.173 16.4655C111.173 14.24 112.639 12.7738 114.263 12.7738C115.886 12.7738 117.378 14.24 117.378 16.4655C117.378 18.6909 115.886 20.1571 114.263 20.1571ZM130.267 9.52729C127.884 9.52729 126.418 10.9935 126.418 10.9935L125.816 9.6582H123.302V28.0117H126.706V22.0946C126.706 22.0946 128.041 23.4298 130.267 23.4298C133.67 23.4298 136.629 20.4713 136.629 16.4655C136.629 12.4858 133.67 9.52729 130.267 9.52729ZM126.418 16.4655C126.418 14.24 127.884 12.7738 129.821 12.7738C131.733 12.7738 133.225 14.24 133.225 16.4655C133.225 18.6909 131.733 20.1571 129.821 20.1571C127.884 20.1571 126.418 18.6909 126.418 16.4655ZM147.742 19.136C147.742 19.136 147.009 20.1571 145.229 20.1571C143.448 20.1571 142.401 19.136 142.113 17.8007H151.591C151.591 17.8007 151.722 17.0676 151.722 16.4655C151.722 12.3287 148.763 9.52729 145.229 9.52729C141.537 9.52729 138.421 12.6167 138.421 16.4655C138.421 20.3142 141.537 23.4298 145.229 23.4298C148.318 23.4298 150.544 21.2044 151.277 19.136H147.742ZM145.229 12.7738C147.009 12.7738 148.187 13.952 148.475 15.4444H141.956C142.27 13.952 143.448 12.7738 145.229 12.7738ZM163.115 9.6582V14.6851H157.643V9.6582H154.24V23.2727H157.643V17.9578H163.115V23.2727H166.519V9.6582H163.115ZM168.581 12.9309H172.561V23.2727H175.965V12.9309H179.971V9.6582H168.581V12.9309Z" fill="black"/>
<path fill-rule="evenodd" clip-rule="evenodd" d="M2.24942 2.24942C0 4.49884 0 8.1192 0 15.36V16.64C0 23.8808 0 27.5011 2.24942 29.7506C4.49884 32 8.1192 32 15.36 32H16.64C23.8808 32 27.5011 32 29.7506 29.7506C32 27.5011 32 23.8808 32 16.64V15.36C32 8.1192 32 4.49884 29.7506 2.24942C27.5011 0 23.8808 0 16.64 0H15.36C8.1192 0 4.49884 0 2.24942 2.24942ZM8.25425 22.9113C8.88142 23.5384 9.73171 23.8913 10.6187 23.8927H21.2995C22.1862 23.8909 23.0361 23.5379 23.6631 22.9108C24.29 22.2837 24.6428 21.4337 24.6441 20.5471V12.9712C24.6441 12.9372 24.6307 12.9047 24.6067 12.8807C24.5827 12.8567 24.5501 12.8432 24.5161 12.8432H22.4404C22.4064 12.8432 22.3739 12.8567 22.3499 12.8807C22.3259 12.9047 22.3124 12.9372 22.3124 12.9712V20.5471C22.3096 20.8152 22.202 21.0715 22.0124 21.2611C21.8228 21.4507 21.5663 21.5585 21.2982 21.5611H10.6187C10.3505 21.5585 10.0941 21.4507 9.90455 21.2611C9.71491 21.0715 9.6072 20.8152 9.60455 20.5471V12.9712C9.60455 12.9372 9.59105 12.9047 9.56702 12.8807C9.54302 12.8567 9.51044 12.8432 9.47647 12.8432H7.40076C7.36684 12.8432 7.33425 12.8567 7.31022 12.8807C7.28622 12.9047 7.27273 12.9372 7.27273 12.9712V20.5471C7.27407 21.4339 7.62702 22.2841 8.25425 22.9113ZM13.2783 11.1509C13.0133 11.1509 12.7541 11.0692 12.5337 10.916C12.3134 10.7629 12.1416 10.5452 12.0403 10.2906C11.9388 10.0359 11.9123 9.75571 11.9639 9.48538C12.0157 9.21506 12.1432 8.96673 12.3307 8.77182C12.5181 8.57691 12.7569 8.44418 13.0168 8.3904C13.2768 8.33665 13.5462 8.36425 13.7911 8.46971C14.0359 8.5752 14.2453 8.75382 14.3925 8.98302C14.5398 9.21218 14.6183 9.48164 14.6183 9.75727C14.618 10.1268 14.4767 10.4811 14.2255 10.7423C13.9742 11.0036 13.6336 11.1505 13.2783 11.1509ZM17.916 12.6082C18.1446 12.7613 18.4133 12.8432 18.6883 12.8432C19.0566 12.8432 19.4099 12.6965 19.6704 12.4354C19.931 12.1744 20.0776 11.8202 20.078 11.4508C20.0782 11.1751 19.9968 10.9056 19.8444 10.6762C19.6918 10.4468 19.4749 10.268 19.2209 10.1624C18.967 10.0567 18.6876 10.0289 18.4179 10.0825C18.1483 10.1361 17.9005 10.2688 17.706 10.4636C17.5115 10.6585 17.379 10.9068 17.3253 11.1772C17.2716 11.4475 17.299 11.7279 17.4041 11.9825C17.5093 12.2372 17.6875 12.4549 17.916 12.6082Z" fill="#804AFF"/>
</svg>
